<svg xmlns="http://www.w3.org/2000/svg" xmlns:xlink="http://www.w3.org/1999/xlink" version="1.1" viewBox="0 0 64 64" style="enable-background:new 0 0 64 64;" xml:space="preserve"><g id="canned_drink"/><g id="canned_food"/><g id="loaction"><g><path d="M44,23c0-6.6-5.4-12-12-12c-6.6,0-12,5.4-12,12s5.4,12,12,12C38.6,35,44,29.6,44,23z M22,23c0-5.5,4.5-10,10-10    c5.5,0,10,4.5,10,10s-4.5,10-10,10C26.5,33,22,28.5,22,23z"/><path d="M35.3,51.1l2.4-9C46.2,39.6,52,31.8,52,23c0-5.7-2.4-11.1-6.7-14.9c-4.3-3.8-9.8-5.6-15.6-5c-9.1,1-16.5,8.4-17.6,17.4    c-1.2,9.8,4.8,18.8,14.2,21.6l2.4,8.9C22.6,51.5,16,52.9,16,56c0,3.4,8.3,5,16,5s16-1.6,16-5C48,52.9,41.4,51.5,35.3,51.1z     M27.4,40.4c-8.7-2.3-14.3-10.6-13.2-19.6c1-8.2,7.6-14.8,15.8-15.7C30.6,5,31.3,5,32,5c4.4,0,8.6,1.6,12,4.6    c3.8,3.4,6,8.3,6,13.4c0,8.1-5.5,15.3-13.4,17.4c-0.3,0.1-0.6,0.4-0.7,0.7l-3.6,13.7c-0.1,0.3-0.5,0.3-0.6,0l-3.6-13.7    C28,40.7,27.7,40.5,27.4,40.4z M32,59c-9.2,0-14-2.1-14-3c0-0.7,3.5-2.5,11.2-2.9l0.6,2.2C30,56.3,31,57,32,57c1,0,2-0.7,2.2-1.7    l0.6-2.2C42.5,53.5,46,55.3,46,56C46,56.9,41.2,59,32,59z"/></g></g><g id="grilled_chicken"/><g id="car"/><g id="backpack"/><g id="picnic_table"/><g id="picnic_basket"/><g id="sand_beach"/><g id="bonfire"/><g id="tent"/><g id="portable_grill"/><g id="portable_stove"/><g id="signpost"/><g id="park"/><g id="hammock"/><g id="forest"/><g id="hill"/><g id="beach"/><g id="camping"/></svg>